<svg xmlns="http://www.w3.org/2000/svg" version="1.1" xmlns:xlink="http://www.w3.org/1999/xlink" xmlns:svgjs="http://svgjs.dev/svgjs" width="1000" height="600" preserveAspectRatio="none" viewBox="0 0 1000 600"><g mask="url(&quot;#SvgjsMask1679&quot;)" fill="none"><rect width="1000" height="600" x="0" y="0" fill="rgba(0, 0, 0, 1)"></rect><g mask="url(&quot;#SvgjsMask1681&quot;)"><path d="M312.5 362.5L337.5 337.5L362.5 337.5L387.5 337.5M287.5 362.5L312.5 337.5M187.5 312.5L212.5 312.5M212.5 337.5L237.5 362.5M-12.5 312.5L12.5 312.5L37.5 312.5L62.5 312.5L87.5 312.5L112.5 312.5L137.5 312.5L162.5 312.5L187.5 312.5L212.5 337.5L237.5 337.5L262.5 362.5L287.5 362.5L312.5 362.5L337.5 362.5L362.5 362.5L387.5 362.5L412.5 362.5" stroke="url(&quot;#SvgjsLinearGradient1680&quot;)" stroke-width="4.17"></path><path d="M406.25 362.5 a6.25 6.25 0 1 0 12.5 0 a6.25 6.25 0 1 0 -12.5 0zM381.25 337.5 a6.25 6.25 0 1 0 12.5 0 a6.25 6.25 0 1 0 -12.5 0zM306.25 337.5 a6.25 6.25 0 1 0 12.5 0 a6.25 6.25 0 1 0 -12.5 0zM206.25 312.5 a6.25 6.25 0 1 0 12.5 0 a6.25 6.25 0 1 0 -12.5 0zM231.25 362.5 a6.25 6.25 0 1 0 12.5 0 a6.25 6.25 0 1 0 -12.5 0z" fill="url(&quot;#SvgjsLinearGradient1680&quot;)"></path><path d="M312.5 312.5L337.5 312.5M237.5 287.5L262.5 312.5M262.5 287.5L287.5 287.5L312.5 287.5M-12.5 287.5L12.5 287.5L37.5 287.5L62.5 287.5L87.5 287.5L112.5 287.5L137.5 287.5L162.5 287.5L187.5 287.5L212.5 287.5L237.5 287.5L262.5 287.5L287.5 312.5L312.5 312.5L337.5 287.5" stroke="url(&quot;#SvgjsLinearGradient1680&quot;)" stroke-width="4.17"></path><path d="M331.25 287.5 a6.25 6.25 0 1 0 12.5 0 a6.25 6.25 0 1 0 -12.5 0zM331.25 312.5 a6.25 6.25 0 1 0 12.5 0 a6.25 6.25 0 1 0 -12.5 0zM256.25 312.5 a6.25 6.25 0 1 0 12.5 0 a6.25 6.25 0 1 0 -12.5 0zM306.25 287.5 a6.25 6.25 0 1 0 12.5 0 a6.25 6.25 0 1 0 -12.5 0z" fill="url(&quot;#SvgjsLinearGradient1680&quot;)"></path><path d="M-12.5 337.5L12.5 337.5L37.5 337.5L62.5 337.5L87.5 337.5L112.5 337.5L137.5 337.5L162.5 337.5L187.5 337.5" stroke="url(&quot;#SvgjsLinearGradient1680&quot;)" stroke-width="4.17"></path><path d="M181.25 337.5 a6.25 6.25 0 1 0 12.5 0 a6.25 6.25 0 1 0 -12.5 0z" fill="url(&quot;#SvgjsLinearGradient1680&quot;)"></path><path d="M-12.5 362.5L12.5 362.5L37.5 362.5L62.5 362.5L87.5 362.5L112.5 362.5L137.5 362.5L162.5 362.5" stroke="url(&quot;#SvgjsLinearGradient1680&quot;)" stroke-width="4.17"></path><path d="M156.25 362.5 a6.25 6.25 0 1 0 12.5 0 a6.25 6.25 0 1 0 -12.5 0z" fill="url(&quot;#SvgjsLinearGradient1680&quot;)"></path><path d="M12.5 262.5L37.5 237.5L62.5 237.5L87.5 237.5L112.5 237.5M137.5 262.5L162.5 237.5L187.5 237.5L212.5 237.5L237.5 237.5M-12.5 237.5L12.5 262.5L37.5 262.5L62.5 262.5L87.5 262.5L112.5 262.5L137.5 262.5L162.5 262.5L187.5 262.5L212.5 262.5L237.5 262.5L262.5 262.5" stroke="url(&quot;#SvgjsLinearGradient1680&quot;)" stroke-width="4.17"></path><path d="M256.25 262.5 a6.25 6.25 0 1 0 12.5 0 a6.25 6.25 0 1 0 -12.5 0zM106.25 237.5 a6.25 6.25 0 1 0 12.5 0 a6.25 6.25 0 1 0 -12.5 0zM231.25 237.5 a6.25 6.25 0 1 0 12.5 0 a6.25 6.25 0 1 0 -12.5 0z" fill="url(&quot;#SvgjsLinearGradient1680&quot;)"></path><path d="M-12.5 387.5L12.5 387.5L37.5 387.5L62.5 387.5" stroke="url(&quot;#SvgjsLinearGradient1680&quot;)" stroke-width="4.17"></path><path d="M56.25 387.5 a6.25 6.25 0 1 0 12.5 0 a6.25 6.25 0 1 0 -12.5 0z" fill="url(&quot;#SvgjsLinearGradient1680&quot;)"></path><path d="M362.5 187.5L387.5 162.5L412.5 162.5M237.5 187.5L262.5 212.5L287.5 212.5L312.5 212.5L337.5 212.5M162.5 187.5L187.5 212.5L212.5 212.5L237.5 212.5M387.5 187.5L412.5 212.5L437.5 212.5L462.5 212.5M-12.5 212.5L12.5 212.5L37.5 212.5L62.5 212.5L87.5 212.5L112.5 212.5L137.5 187.5L162.5 187.5L187.5 187.5L212.5 187.5L237.5 187.5L262.5 187.5L287.5 187.5L312.5 187.5L337.5 187.5L362.5 187.5L387.5 187.5L412.5 187.5" stroke="url(&quot;#SvgjsLinearGradient1680&quot;)" stroke-width="4.17"></path><path d="M406.25 187.5 a6.25 6.25 0 1 0 12.5 0 a6.25 6.25 0 1 0 -12.5 0zM406.25 162.5 a6.25 6.25 0 1 0 12.5 0 a6.25 6.25 0 1 0 -12.5 0zM331.25 212.5 a6.25 6.25 0 1 0 12.5 0 a6.25 6.25 0 1 0 -12.5 0zM231.25 212.5 a6.25 6.25 0 1 0 12.5 0 a6.25 6.25 0 1 0 -12.5 0zM456.25 212.5 a6.25 6.25 0 1 0 12.5 0 a6.25 6.25 0 1 0 -12.5 0z" fill="url(&quot;#SvgjsLinearGradient1680&quot;)"></path><path d="M362.5 387.5L387.5 412.5L412.5 412.5L437.5 412.5L462.5 412.5M212.5 387.5L237.5 412.5M287.5 387.5L312.5 412.5L337.5 412.5L362.5 412.5L387.5 437.5L412.5 437.5L437.5 437.5M262.5 387.5L287.5 412.5L312.5 437.5L337.5 437.5L362.5 437.5L387.5 462.5L412.5 462.5M162.5 387.5L187.5 412.5L212.5 412.5L237.5 437.5M-12.5 412.5L12.5 412.5L37.5 412.5L62.5 412.5L87.5 412.5L112.5 387.5L137.5 387.5L162.5 387.5L187.5 387.5L212.5 387.5L237.5 387.5L262.5 387.5L287.5 387.5L312.5 387.5L337.5 387.5L362.5 387.5L387.5 387.5L412.5 387.5L437.5 387.5L462.5 387.5" stroke="url(&quot;#SvgjsLinearGradient1680&quot;)" stroke-width="4.17"></path><path d="M456.25 387.5 a6.25 6.25 0 1 0 12.5 0 a6.25 6.25 0 1 0 -12.5 0zM456.25 412.5 a6.25 6.25 0 1 0 12.5 0 a6.25 6.25 0 1 0 -12.5 0zM231.25 412.5 a6.25 6.25 0 1 0 12.5 0 a6.25 6.25 0 1 0 -12.5 0zM431.25 437.5 a6.25 6.25 0 1 0 12.5 0 a6.25 6.25 0 1 0 -12.5 0zM406.25 462.5 a6.25 6.25 0 1 0 12.5 0 a6.25 6.25 0 1 0 -12.5 0zM231.25 437.5 a6.25 6.25 0 1 0 12.5 0 a6.25 6.25 0 1 0 -12.5 0z" fill="url(&quot;#SvgjsLinearGradient1680&quot;)"></path><path d="M137.5 162.5L162.5 137.5L187.5 137.5L212.5 137.5M87.5 162.5L112.5 137.5L137.5 137.5L162.5 112.5L187.5 112.5M62.5 162.5L87.5 137.5L112.5 112.5L137.5 87.5M-12.5 187.5L12.5 187.5L37.5 162.5L62.5 162.5L87.5 162.5L112.5 162.5L137.5 162.5L162.5 162.5L187.5 162.5L212.5 162.5" stroke="url(&quot;#SvgjsLinearGradient1680&quot;)" stroke-width="4.17"></path><path d="M206.25 162.5 a6.25 6.25 0 1 0 12.5 0 a6.25 6.25 0 1 0 -12.5 0zM206.25 137.5 a6.25 6.25 0 1 0 12.5 0 a6.25 6.25 0 1 0 -12.5 0zM181.25 112.5 a6.25 6.25 0 1 0 12.5 0 a6.25 6.25 0 1 0 -12.5 0zM131.25 87.5 a6.25 6.25 0 1 0 12.5 0 a6.25 6.25 0 1 0 -12.5 0z" fill="url(&quot;#SvgjsLinearGradient1680&quot;)"></path><path d="M287.5 487.5L312.5 462.5L337.5 462.5L362.5 462.5M237.5 487.5L262.5 512.5L287.5 537.5L312.5 537.5L337.5 537.5M337.5 487.5L362.5 512.5L387.5 512.5L412.5 512.5M87.5 462.5L112.5 462.5L137.5 462.5L162.5 462.5M-12.5 437.5L12.5 437.5L37.5 437.5L62.5 437.5L87.5 462.5L112.5 487.5L137.5 487.5L162.5 487.5L187.5 487.5L212.5 487.5L237.5 487.5L262.5 487.5L287.5 487.5L312.5 487.5L337.5 487.5L362.5 487.5L387.5 487.5L412.5 487.5" stroke="url(&quot;#SvgjsLinearGradient1680&quot;)" stroke-width="4.17"></path><path d="M406.25 487.5 a6.25 6.25 0 1 0 12.5 0 a6.25 6.25 0 1 0 -12.5 0zM356.25 462.5 a6.25 6.25 0 1 0 12.5 0 a6.25 6.25 0 1 0 -12.5 0zM331.25 537.5 a6.25 6.25 0 1 0 12.5 0 a6.25 6.25 0 1 0 -12.5 0zM406.25 512.5 a6.25 6.25 0 1 0 12.5 0 a6.25 6.25 0 1 0 -12.5 0zM156.25 462.5 a6.25 6.25 0 1 0 12.5 0 a6.25 6.25 0 1 0 -12.5 0z" fill="url(&quot;#SvgjsLinearGradient1680&quot;)"></path><path d="M-12.5 162.5L12.5 162.5L37.5 137.5" stroke="url(&quot;#SvgjsLinearGradient1680&quot;)" stroke-width="4.17"></path><path d="M31.25 137.5 a6.25 6.25 0 1 0 12.5 0 a6.25 6.25 0 1 0 -12.5 0z" fill="url(&quot;#SvgjsLinearGradient1680&quot;)"></path></g></g><defs><mask id="SvgjsMask1679"><rect width="1000" height="600" fill="#ffffff"></rect></mask><linearGradient x1="0" y1="300" x2="500" y2="300" gradientUnits="userSpaceOnUse" id="SvgjsLinearGradient1680"><stop stop-color="rgba(58, 124, 195, 1)" offset="0"></stop><stop stop-color="rgba(17, 221, 75, 1)" offset="0.36"></stop></linearGradient><mask id="SvgjsMask1681"><rect width="1000" height="600" fill="white"></rect><path d="M409.37 362.5 a3.13 3.13 0 1 0 6.26 0 a3.13 3.13 0 1 0 -6.26 0zM384.37 337.5 a3.13 3.13 0 1 0 6.26 0 a3.13 3.13 0 1 0 -6.26 0zM309.37 337.5 a3.13 3.13 0 1 0 6.26 0 a3.13 3.13 0 1 0 -6.26 0zM209.37 312.5 a3.13 3.13 0 1 0 6.26 0 a3.13 3.13 0 1 0 -6.26 0zM234.37 362.5 a3.13 3.13 0 1 0 6.26 0 a3.13 3.13 0 1 0 -6.26 0z" fill="black"></path><path d="M334.37 287.5 a3.13 3.13 0 1 0 6.26 0 a3.13 3.13 0 1 0 -6.26 0zM334.37 312.5 a3.13 3.13 0 1 0 6.26 0 a3.13 3.13 0 1 0 -6.26 0zM259.37 312.5 a3.13 3.13 0 1 0 6.26 0 a3.13 3.13 0 1 0 -6.26 0zM309.37 287.5 a3.13 3.13 0 1 0 6.26 0 a3.13 3.13 0 1 0 -6.26 0z" fill="black"></path><path d="M184.37 337.5 a3.13 3.13 0 1 0 6.26 0 a3.13 3.13 0 1 0 -6.26 0z" fill="black"></path><path d="M159.37 362.5 a3.13 3.13 0 1 0 6.26 0 a3.13 3.13 0 1 0 -6.26 0z" fill="black"></path><path d="M259.37 262.5 a3.13 3.13 0 1 0 6.26 0 a3.13 3.13 0 1 0 -6.26 0zM109.37 237.5 a3.13 3.13 0 1 0 6.26 0 a3.13 3.13 0 1 0 -6.26 0zM234.37 237.5 a3.13 3.13 0 1 0 6.26 0 a3.13 3.13 0 1 0 -6.26 0z" fill="black"></path><path d="M59.37 387.5 a3.13 3.13 0 1 0 6.26 0 a3.13 3.13 0 1 0 -6.26 0z" fill="black"></path><path d="M409.37 187.5 a3.13 3.13 0 1 0 6.26 0 a3.13 3.13 0 1 0 -6.26 0zM409.37 162.5 a3.13 3.13 0 1 0 6.26 0 a3.13 3.13 0 1 0 -6.26 0zM334.37 212.5 a3.13 3.13 0 1 0 6.26 0 a3.13 3.13 0 1 0 -6.26 0zM234.37 212.5 a3.13 3.13 0 1 0 6.26 0 a3.13 3.13 0 1 0 -6.26 0zM459.37 212.5 a3.13 3.13 0 1 0 6.26 0 a3.13 3.13 0 1 0 -6.26 0z" fill="black"></path><path d="M459.37 387.5 a3.13 3.13 0 1 0 6.26 0 a3.13 3.13 0 1 0 -6.26 0zM459.37 412.5 a3.13 3.13 0 1 0 6.26 0 a3.13 3.13 0 1 0 -6.26 0zM234.37 412.5 a3.13 3.13 0 1 0 6.26 0 a3.13 3.13 0 1 0 -6.26 0zM434.37 437.5 a3.13 3.13 0 1 0 6.26 0 a3.13 3.13 0 1 0 -6.26 0zM409.37 462.5 a3.13 3.13 0 1 0 6.26 0 a3.13 3.13 0 1 0 -6.26 0zM234.37 437.5 a3.13 3.13 0 1 0 6.26 0 a3.13 3.13 0 1 0 -6.26 0z" fill="black"></path><path d="M209.37 162.5 a3.13 3.13 0 1 0 6.26 0 a3.13 3.13 0 1 0 -6.26 0zM209.37 137.5 a3.13 3.13 0 1 0 6.26 0 a3.13 3.13 0 1 0 -6.26 0zM184.37 112.5 a3.13 3.13 0 1 0 6.26 0 a3.13 3.13 0 1 0 -6.26 0zM134.37 87.5 a3.13 3.13 0 1 0 6.26 0 a3.13 3.13 0 1 0 -6.26 0z" fill="black"></path><path d="M409.37 487.5 a3.13 3.13 0 1 0 6.26 0 a3.13 3.13 0 1 0 -6.26 0zM359.37 462.5 a3.13 3.13 0 1 0 6.26 0 a3.13 3.13 0 1 0 -6.26 0zM334.37 537.5 a3.13 3.13 0 1 0 6.26 0 a3.13 3.13 0 1 0 -6.26 0zM409.37 512.5 a3.13 3.13 0 1 0 6.26 0 a3.13 3.13 0 1 0 -6.26 0zM159.37 462.5 a3.13 3.13 0 1 0 6.26 0 a3.13 3.13 0 1 0 -6.26 0z" fill="black"></path><path d="M34.37 137.5 a3.13 3.13 0 1 0 6.26 0 a3.13 3.13 0 1 0 -6.26 0z" fill="black"></path></mask></defs></svg>