<svg xmlns="http://www.w3.org/2000/svg" version="1.1" xmlns:xlink="http://www.w3.org/1999/xlink" xmlns:svgjs="http://svgjs.dev/svgjs" width="1360" height="800" preserveAspectRatio="none" viewBox="0 0 1360 800"><g mask="url(&quot;#SvgjsMask1793&quot;)" fill="none"><rect width="1360" height="800" x="0" y="0" fill="url(&quot;#SvgjsLinearGradient1794&quot;)"></rect><path d="M292 218L291 662" stroke-width="8" stroke="url(&quot;#SvgjsLinearGradient1795&quot;)" stroke-linecap="round" class="Up"></path><path d="M951 113L950 -262" stroke-width="10" stroke="url(&quot;#SvgjsLinearGradient1795&quot;)" stroke-linecap="round" class="Up"></path><path d="M1085 66L1084 -262" stroke-width="6" stroke="url(&quot;#SvgjsLinearGradient1795&quot;)" stroke-linecap="round" class="Up"></path><path d="M461 33L460 267" stroke-width="10" stroke="url(&quot;#SvgjsLinearGradient1795&quot;)" stroke-linecap="round" class="Up"></path><path d="M403 413L402 932" stroke-width="6" stroke="url(&quot;#SvgjsLinearGradient1796&quot;)" stroke-linecap="round" class="Down"></path><path d="M266 158L265 -264" stroke-width="10" stroke="url(&quot;#SvgjsLinearGradient1796&quot;)" stroke-linecap="round" class="Down"></path><path d="M330 492L329 941" stroke-width="6" stroke="url(&quot;#SvgjsLinearGradient1796&quot;)" stroke-linecap="round" class="Down"></path><path d="M968 64L967 -535" stroke-width="10" stroke="url(&quot;#SvgjsLinearGradient1796&quot;)" stroke-linecap="round" class="Down"></path><path d="M129 23L128 -568" stroke-width="8" stroke="url(&quot;#SvgjsLinearGradient1795&quot;)" stroke-linecap="round" class="Up"></path><path d="M705 695L704 1294" stroke-width="6" stroke="url(&quot;#SvgjsLinearGradient1795&quot;)" stroke-linecap="round" class="Up"></path><path d="M978 125L977 410" stroke-width="6" stroke="url(&quot;#SvgjsLinearGradient1796&quot;)" stroke-linecap="round" class="Down"></path><path d="M501 214L500 -112" stroke-width="8" stroke="url(&quot;#SvgjsLinearGradient1795&quot;)" stroke-linecap="round" class="Up"></path><path d="M628 187L627 -236" stroke-width="6" stroke="url(&quot;#SvgjsLinearGradient1795&quot;)" stroke-linecap="round" class="Up"></path><path d="M506 558L505 268" stroke-width="8" stroke="url(&quot;#SvgjsLinearGradient1796&quot;)" stroke-linecap="round" class="Down"></path><path d="M1354 533L1353 975" stroke-width="6" stroke="url(&quot;#SvgjsLinearGradient1796&quot;)" stroke-linecap="round" class="Down"></path><path d="M415 234L414 -168" stroke-width="6" stroke="url(&quot;#SvgjsLinearGradient1796&quot;)" stroke-linecap="round" class="Down"></path><path d="M524 176L523 -213" stroke-width="8" stroke="url(&quot;#SvgjsLinearGradient1795&quot;)" stroke-linecap="round" class="Up"></path><path d="M682 615L681 357" stroke-width="10" stroke="url(&quot;#SvgjsLinearGradient1796&quot;)" stroke-linecap="round" class="Down"></path><path d="M60 371L59 -185" stroke-width="6" stroke="url(&quot;#SvgjsLinearGradient1796&quot;)" stroke-linecap="round" class="Down"></path><path d="M216 58L215 -334" stroke-width="10" stroke="url(&quot;#SvgjsLinearGradient1796&quot;)" stroke-linecap="round" class="Down"></path><path d="M1152 203L1151 424" stroke-width="6" stroke="url(&quot;#SvgjsLinearGradient1795&quot;)" stroke-linecap="round" class="Up"></path><path d="M764 5L763 -207" stroke-width="8" stroke="url(&quot;#SvgjsLinearGradient1795&quot;)" stroke-linecap="round" class="Up"></path><path d="M380 563L379 827" stroke-width="6" stroke="url(&quot;#SvgjsLinearGradient1796&quot;)" stroke-linecap="round" class="Down"></path><path d="M390 724L389 1072" stroke-width="8" stroke="url(&quot;#SvgjsLinearGradient1796&quot;)" stroke-linecap="round" class="Down"></path><path d="M960 630L959 1198" stroke-width="6" stroke="url(&quot;#SvgjsLinearGradient1796&quot;)" stroke-linecap="round" class="Down"></path><path d="M621 239L620 636" stroke-width="10" stroke="url(&quot;#SvgjsLinearGradient1796&quot;)" stroke-linecap="round" class="Down"></path><path d="M662 623L661 352" stroke-width="10" stroke="url(&quot;#SvgjsLinearGradient1795&quot;)" stroke-linecap="round" class="Up"></path><path d="M589 416L588 -126" stroke-width="8" stroke="url(&quot;#SvgjsLinearGradient1795&quot;)" stroke-linecap="round" class="Up"></path><path d="M455 193L454 -151" stroke-width="10" stroke="url(&quot;#SvgjsLinearGradient1796&quot;)" stroke-linecap="round" class="Down"></path><path d="M945 722L944 961" stroke-width="6" stroke="url(&quot;#SvgjsLinearGradient1796&quot;)" stroke-linecap="round" class="Down"></path><path d="M1187 405L1186 -51" stroke-width="8" stroke="url(&quot;#SvgjsLinearGradient1795&quot;)" stroke-linecap="round" class="Up"></path><path d="M498 93L497 -271" stroke-width="8" stroke="url(&quot;#SvgjsLinearGradient1795&quot;)" stroke-linecap="round" class="Up"></path><path d="M1046 482L1045 870" stroke-width="8" stroke="url(&quot;#SvgjsLinearGradient1795&quot;)" stroke-linecap="round" class="Up"></path><path d="M1004 567L1003 143" stroke-width="10" stroke="url(&quot;#SvgjsLinearGradient1796&quot;)" stroke-linecap="round" class="Down"></path></g><defs><mask id="SvgjsMask1793"><rect width="1360" height="800" fill="#ffffff"></rect></mask><linearGradient x1="10.29%" y1="-17.5%" x2="89.71%" y2="117.5%" gradientUnits="userSpaceOnUse" id="SvgjsLinearGradient1794"><stop stop-color="#0e2a47" offset="0"></stop><stop stop-color="rgba(0, 1, 158, 1)" offset="0.47"></stop></linearGradient><linearGradient x1="0%" y1="100%" x2="0%" y2="0%" id="SvgjsLinearGradient1795"><stop stop-color="rgba(46, 205, 4, 0)" offset="0"></stop><stop stop-color="rgba(46, 205, 4, 1)" offset="1"></stop></linearGradient><linearGradient x1="0%" y1="0%" x2="0%" y2="100%" id="SvgjsLinearGradient1796"><stop stop-color="rgba(46, 205, 4, 0)" offset="0"></stop><stop stop-color="rgba(46, 205, 4, 1)" offset="1"></stop></linearGradient></defs></svg>